<svg width="27" height="27" viewBox="0 0 27 27" fill="none" xmlns="http://www.w3.org/2000/svg">
<g filter="url(#filter0_d)">
<circle cx="13.5" cy="9.5" r="7.5" fill="#2E61E5"/>
<circle cx="13.5" cy="9.5" r="7.5" fill="#2459E2"/>
</g>
<path d="M10.3672 8.25781C10.3672 8.24609 10.3672 8.21875 10.3672 8.19922C10.3672 7.77344 10.6797 7.41016 11.1758 7.41016C11.6289 7.41016 11.9648 7.70312 11.9648 8.15625C11.9648 8.55859 11.7188 8.875 11.3711 9.24219L9.43359 11.3438V12H13.1055V11.1406H10.8711V11.1094L12.0742 9.75781C12.6875 9.10156 13.0117 8.67969 13.0117 8.05859C13.0117 7.1875 12.2969 6.56641 11.2227 6.56641C10.0859 6.56641 9.36719 7.30859 9.36719 8.20703V8.25781H10.3672ZM15.7461 11.3398C15.168 11.3398 14.7305 10.9883 14.7305 10.4648C14.7305 9.94141 15.168 9.58203 15.7461 9.58203C16.3203 9.58203 16.7617 9.94141 16.7617 10.4648C16.7617 10.9883 16.3203 11.3398 15.7461 11.3398ZM15.7461 8.86328C15.2617 8.86328 14.9023 8.54688 14.9023 8.09375C14.9023 7.64062 15.2617 7.33594 15.7461 7.33594C16.2305 7.33594 16.5898 7.64062 16.5898 8.09375C16.5898 8.54688 16.2305 8.86328 15.7461 8.86328ZM15.7344 12.1016C16.9844 12.1016 17.8086 11.457 17.8086 10.5312C17.8086 9.69141 17.1758 9.30078 16.6914 9.20312V9.17188C17.1328 9.03516 17.5977 8.67188 17.5977 7.97656C17.5977 7.16406 16.8594 6.56641 15.7461 6.56641C14.6328 6.56641 13.8945 7.16406 13.8945 7.97656C13.8945 8.66406 14.3438 9.03125 14.7969 9.17188V9.20312C14.3164 9.30078 13.6797 9.6875 13.6797 10.5352C13.6797 11.4609 14.4883 12.1016 15.7344 12.1016Z" fill="#D5D5D5"/>
<defs>
<filter id="filter0_d" x="0" y="0" width="27" height="27" filterUnits="userSpaceOnUse" color-interpolation-filters="sRGB">
<feFlood flood-opacity="0" result="BackgroundImageFix"/>
<feColorMatrix in="SourceAlpha" type="matrix" values="0 0 0 0 0 0 0 0 0 0 0 0 0 0 0 0 0 0 127 0"/>
<feOffset dy="4"/>
<feGaussianBlur stdDeviation="3"/>
<feColorMatrix type="matrix" values="0 0 0 0 0 0 0 0 0 0 0 0 0 0 0 0 0 0 0.25 0"/>
<feBlend mode="normal" in2="BackgroundImageFix" result="effect1_dropShadow"/>
<feBlend mode="normal" in="SourceGraphic" in2="effect1_dropShadow" result="shape"/>
</filter>
</defs>
</svg>
